<?xml version="1.0" encoding="UTF-8"?> <svg xmlns="http://www.w3.org/2000/svg" xmlns:xlink="http://www.w3.org/1999/xlink" version="1.1" id="Layer_1" x="0px" y="0px" viewBox="0 0 676 287.7" style="enable-background:new 0 0 676 287.7;" xml:space="preserve"> <style type="text/css"> .st0{fill:#06A76C;} .st1{fill:#393939;} </style> <path class="st0" d="M166.2,135.4c-0.7-1.6-2.2-2.5-3.9-2.5l-51.5,0.4c-27.8,0-51.2-20.8-54.6-48.3l-0.1-0.5l0.5-0.2 c6.8-2.9,14.1-4.4,21.6-4.4h57c3.6,0,7-1.9,8.8-5.1l39.4-68.4c0.8-1.5,0.7-3.2-0.3-4.6C182.4,0.6,181,0,179.5,0h-68.7 C91.2,0,72.5,7.3,58,20.5C43.7,33.7,34.8,51.6,33,70.9v0.3l-0.2,0.2C12.2,86.1,0,109.8,0,134.9c0,43.1,35.1,78.2,78.3,78.2l39.5-0.3 c3.6,0,6.9-2,8.7-5.1l39.3-68.3C166.6,138.1,166.7,136.6,166.2,135.4z M78.2,190c-17.2,0-33.2-7.9-43.7-21.6 C24,154.7,20.6,137,25.2,119.8c1.8-6.5,4.9-12.7,9.4-18.4l1.1-1.3l0.4,1.2C40.9,117,50.8,131,64,140.9 c13.6,10.2,29.9,15.6,46.9,15.6l13.3-0.1c1.1,0,2.1,0.6,2.6,1.5s0.5,2,0,3l-14.6,25.4c-1.3,2.2-3.6,3.6-6.1,3.6L78.2,190z M59.7,57.9c8.4-21.1,28.5-34.7,51.1-34.7h31c1.1,0,2,0.5,2.6,1.5c0.5,0.9,0.5,2,0,3l-14.7,25.5c-1.3,2.2-3.6,3.6-6.2,3.6H78.2 c-6,0-12,0.7-17.8,2L59.2,59L59.7,57.9z"></path> <g> <path class="st1" d="M243.8,132.9c-19.6,0-37.4,6.4-50.2,18.1c-14.8,13.6-22.7,34.2-22.7,59.6c0,25.3,7.8,45.8,22.6,59.3 c12.7,11.5,30.5,17.8,50.2,17.8c16.5,0,55.8-4.9,64.1-50.5c0.2-1.1-0.1-2.1-0.8-2.9c-0.7-0.8-1.6-1.2-2.6-1.2h-20.8 c-1.5,0-2.8,1-3.3,2.5c-5.1,17.6-17.9,28.6-36.9,28.6c-27.7,0-44.2-21.1-44.2-53.5c0-15.5,3.9-30.3,11.3-39.4 c7.8-9.6,19.1-14.7,32.9-14.7c19.1,0,31.8,11.3,37,28.9c0.4,1.5,1.8,2.6,3.3,2.6h20.7c1,0,1.9-0.4,2.6-1.2s1-1.9,0.8-3 C299,139.7,263.9,132.9,243.8,132.9z"></path> <path class="st1" d="M527.8,99.6V79.9c0-1.1-0.9-2-2-2h-19.9c-27.5,0-44,16.1-44,43v9.5v1.8v1.8h-1.8h-1.8h-15.7 c-1.3,0-2.3,1-2.3,2.3v17.6c0,0.6,0.2,1.2,0.7,1.6c0.4,0.4,1,0.7,1.6,0.7h15.7h1.8h1.8v1.8v1.8v124.1c0,1.3,1,2.3,2.3,2.3h26.2 c1.3,0,2.3-1,2.3-2.3V159.7v-1.8v-1.8h1.8h1.8h18.9c1.3,0,2.3-1,2.3-2.3v-17.6c0-1.3-1-2.3-2.3-2.3h-18.9h-1.8h-1.8v-1.8v-1.8v-5.1 c0-16,7.3-23.8,22.4-23.8h10.7C526.9,101.6,527.8,100.7,527.8,99.6z"></path> <path class="st1" d="M641,269.3c14.7-13.6,22.5-34,22.5-58.9s-7.8-45.3-22.5-58.9c-12.8-11.9-30.6-18.4-50-18.4 c-33.5,0-72.5,20.2-72.5,77.3c0,26.2,8,46.4,23.7,60.1c12.7,11.1,30.1,17.2,48.8,17.2C610.4,287.7,628.2,281.1,641,269.3z M559.7,251.6c-8.5-9.2-12.9-24.3-12.9-41.2s4.3-32,12.9-41.2c7.8-8.4,18.6-12.8,31.3-12.8c12.6,0,23.3,4.4,31,12.9 c8.5,9.3,12.8,24.3,12.8,41.2s-4.3,32-12.8,41.2c-7.7,8.4-18.5,12.8-31,12.8C578.3,264.4,567.5,260,559.7,251.6z"></path> <path class="st1" d="M324.8,286h101.4c1.9,0,3.5-1.6,3.5-3.5v-15.6c0-1.9-1.6-3.5-3.5-3.5h-28.6h-40.4h-0.5H355v-1.8v-0.5v-0.7 c0-11.6,10.1-19.2,32.7-32.1l1.6-0.9c18.3-10,41-22.4,41-51c0-27.4-19.9-43.7-53.1-43.7c-21,0-36.1,6.3-44.9,18.7 c-7.5,10.5-8.6,23.1-8.6,29.7v3.1c0,1.9,1.6,3.5,3.5,3.5h20.7c1.9,0,3.5-1.6,3.5-3.5v-1.8c0-16.3,9.7-26.5,25.4-26.5 c8.2,0,15,2.4,19.3,6.8c3.8,3.9,5.6,9.1,5.4,15.7c-0.2,16.6-14,24.2-31.6,33.8c-2.5,1.3-5,2.7-7.5,4.2 c-34.4,19.8-40.9,37.9-40.9,64.2v1.6C321.3,284.5,322.9,286,324.8,286z"></path> </g> <g> <path class="st1" d="M661.4,143.8h-4v10.7h-2.2v-10.7h-3.8V142h10V143.8L661.4,143.8z"></path> <path class="st1" d="M665.8,142l3.7,9.6l3.7-9.6h2.8v12.5h-2.2v-4.1l0.3-5.6l-3.7,9.7h-1.6l-3.7-9.7l0.3,5.6v4.1h-2.2V142H665.8z"></path> </g> </svg> 